<svg width="16" height="16" viewBox="0 0 16 16" fill="none" xmlns="http://www.w3.org/2000/svg">
<path d="M6.66652 13.8511C6.08626 13.7195 5.52897 13.5017 5.01318 13.2051" stroke="#F4F4F4" stroke-linecap="round" stroke-linejoin="round"/>
<path d="M9.3335 2.14844C10.6589 2.45115 11.8423 3.1949 12.6899 4.25791C13.5375 5.32092 13.9991 6.64021 13.9991 7.99977C13.9991 9.35934 13.5375 10.6786 12.6899 11.7416C11.8423 12.8046 10.6589 13.5484 9.3335 13.8511" stroke="#F4F4F4" stroke-linecap="round" stroke-linejoin="round"/>
<path d="M3.05286 11.395C2.6892 10.8666 2.413 10.2832 2.23486 9.66699" stroke="#F4F4F4" stroke-linecap="round" stroke-linejoin="round"/>
<path d="M2.08252 7.00034C2.18919 6.36701 2.39452 5.76701 2.68252 5.21701L2.79519 5.01367" stroke="#F4F4F4" stroke-linecap="round" stroke-linejoin="round"/>
<path d="M4.60449 3.05244C5.22826 2.62304 5.92804 2.31625 6.66649 2.14844" stroke="#F4F4F4" stroke-linecap="round" stroke-linejoin="round"/>
<path d="M6 8.00033L7.33333 9.33366L10 6.66699" stroke="#F4F4F4" stroke-linecap="round" stroke-linejoin="round"/>
</svg>
